<svg xmlns="http://www.w3.org/2000/svg" xmlns:xlink="http://www.w3.org/1999/xlink" width="130" zoomAndPan="magnify" viewBox="0 0 97.5 37.5" height="50" preserveAspectRatio="xMidYMid meet" version="1.0"><defs><g/><clipPath id="598000abbf"><path d="M 37.910156 1.164062 L 59.375 1.164062 L 59.375 14.488281 L 37.910156 14.488281 Z M 37.910156 1.164062 " clip-rule="nonzero"/></clipPath></defs><g clip-path="url(#598000abbf)"><path fill="#f9bf29" d="M 57.894531 4.238281 L 57.378906 4.238281 L 57.378906 3.214844 C 57.378906 2.082031 56.460938 1.164062 55.332031 1.164062 L 41.675781 1.164062 C 40.542969 1.164062 39.625 2.082031 39.625 3.214844 L 39.625 4.238281 L 39.113281 4.238281 C 38.453125 4.238281 37.917969 4.773438 37.917969 5.433594 L 37.917969 12.261719 C 37.917969 12.921875 38.453125 13.457031 39.113281 13.457031 L 39.285156 13.457031 L 39.285156 14.480469 C 39.285156 14.667969 39.4375 14.820312 39.625 14.820312 L 40.605469 14.820312 C 40.761719 14.820312 40.894531 14.71875 40.9375 14.574219 L 41.25 13.457031 L 55.757812 13.457031 L 56.070312 14.574219 C 56.113281 14.71875 56.246094 14.820312 56.398438 14.820312 L 57.378906 14.820312 C 57.570312 14.820312 57.722656 14.667969 57.722656 14.480469 L 57.722656 13.457031 L 57.894531 13.457031 C 58.550781 13.457031 59.085938 12.921875 59.085938 12.261719 L 59.085938 5.433594 C 59.085938 4.773438 58.550781 4.238281 57.894531 4.238281 Z M 40.308594 3.214844 C 40.308594 2.460938 40.921875 1.847656 41.675781 1.847656 L 55.332031 1.847656 C 56.085938 1.847656 56.699219 2.460938 56.699219 3.214844 L 56.699219 4.238281 L 56.183594 4.238281 C 55.527344 4.238281 54.992188 4.773438 54.992188 5.433594 L 54.992188 7.152344 C 54.628906 6.824219 54.148438 6.628906 53.625 6.628906 L 43.382812 6.628906 C 42.855469 6.628906 42.378906 6.824219 42.015625 7.152344 L 42.015625 5.433594 C 42.015625 4.773438 41.480469 4.238281 40.820312 4.238281 L 40.308594 4.238281 Z M 54.992188 8.675781 L 54.992188 9.359375 L 42.015625 9.359375 L 42.015625 8.675781 C 42.015625 7.921875 42.628906 7.308594 43.382812 7.308594 L 53.625 7.308594 C 54.378906 7.308594 54.992188 7.921875 54.992188 8.675781 Z M 40.347656 14.140625 L 39.96875 14.140625 L 39.96875 13.457031 L 40.539062 13.457031 Z M 57.039062 14.140625 L 56.65625 14.140625 L 56.464844 13.457031 L 57.039062 13.457031 Z M 58.40625 12.261719 C 58.40625 12.542969 58.175781 12.773438 57.894531 12.773438 L 39.113281 12.773438 C 38.832031 12.773438 38.601562 12.542969 38.601562 12.261719 L 38.601562 5.433594 C 38.601562 5.148438 38.832031 4.921875 39.113281 4.921875 L 40.820312 4.921875 C 41.101562 4.921875 41.332031 5.148438 41.332031 5.433594 L 41.332031 9.699219 C 41.332031 9.890625 41.484375 10.042969 41.675781 10.042969 L 55.332031 10.042969 C 55.519531 10.042969 55.671875 9.890625 55.671875 9.699219 L 55.671875 5.433594 C 55.671875 5.148438 55.902344 4.921875 56.183594 4.921875 L 57.894531 4.921875 C 58.175781 4.921875 58.40625 5.148438 58.40625 5.433594 Z M 58.40625 12.261719 " fill-opacity="1" fill-rule="nonzero"/></g><g fill="#f9bf29" fill-opacity="1"><g transform="translate(27.973912, 7.064617)"><g><path d="M 2.625 -2.78125 L 0.765625 -2.78125 L 0.765625 -1.8125 L 2.5 -1.8125 L 2.5 -1.4375 L 0.765625 -1.4375 L 0.765625 -0.375 L 2.6875 -0.375 L 2.6875 0 L 0.34375 0 L 0.34375 -3.140625 L 2.625 -3.140625 Z M 2.625 -2.78125 "/></g></g></g><g fill="#f9bf29" fill-opacity="1"><g transform="translate(30.905789, 7.064617)"><g><path d="M 1.421875 -3.203125 C 1.773438 -3.203125 2.054688 -3.117188 2.265625 -2.953125 C 2.472656 -2.785156 2.585938 -2.550781 2.609375 -2.25 L 2.203125 -2.234375 C 2.179688 -2.429688 2.109375 -2.578125 1.984375 -2.671875 C 1.859375 -2.773438 1.675781 -2.828125 1.4375 -2.828125 C 1.207031 -2.828125 1.03125 -2.785156 0.90625 -2.703125 C 0.78125 -2.617188 0.71875 -2.503906 0.71875 -2.359375 C 0.71875 -2.265625 0.742188 -2.179688 0.796875 -2.109375 C 0.859375 -2.046875 0.941406 -2 1.046875 -1.96875 C 1.066406 -1.96875 1.148438 -1.941406 1.296875 -1.890625 C 1.453125 -1.847656 1.644531 -1.800781 1.875 -1.75 C 2.144531 -1.695312 2.347656 -1.585938 2.484375 -1.421875 C 2.628906 -1.265625 2.703125 -1.085938 2.703125 -0.890625 C 2.703125 -0.710938 2.65625 -0.550781 2.5625 -0.40625 C 2.46875 -0.269531 2.332031 -0.160156 2.15625 -0.078125 C 1.976562 0.00390625 1.769531 0.046875 1.53125 0.046875 C 1.257812 0.046875 1.019531 0.00390625 0.8125 -0.078125 C 0.613281 -0.160156 0.460938 -0.28125 0.359375 -0.4375 C 0.253906 -0.601562 0.203125 -0.796875 0.203125 -1.015625 L 0.59375 -1.046875 C 0.613281 -0.796875 0.710938 -0.613281 0.890625 -0.5 C 1.066406 -0.382812 1.273438 -0.328125 1.515625 -0.328125 C 1.765625 -0.328125 1.957031 -0.375 2.09375 -0.46875 C 2.226562 -0.570312 2.296875 -0.707031 2.296875 -0.875 C 2.296875 -1.101562 2.113281 -1.265625 1.75 -1.359375 L 1.5 -1.421875 C 1.34375 -1.453125 1.164062 -1.5 0.96875 -1.5625 C 0.769531 -1.613281 0.613281 -1.707031 0.5 -1.84375 C 0.382812 -1.988281 0.328125 -2.148438 0.328125 -2.328125 C 0.328125 -2.492188 0.367188 -2.640625 0.453125 -2.765625 C 0.546875 -2.898438 0.671875 -3.003906 0.828125 -3.078125 C 0.992188 -3.160156 1.191406 -3.203125 1.421875 -3.203125 Z M 1.421875 -3.203125 "/></g></g></g><g fill="#f9bf29" fill-opacity="1"><g transform="translate(27.973912, 11.605694)"><g><path d="M 2.59375 -2.78125 L 1.546875 -2.78125 L 1.546875 0 L 1.125 0 L 1.125 -2.78125 L 0.09375 -2.78125 L 0.09375 -3.140625 L 2.59375 -3.140625 Z M 2.59375 -2.78125 "/></g></g></g><g fill="#f9bf29" fill-opacity="1"><g transform="translate(30.659635, 11.605694)"><g><path d="M 2.296875 -2.984375 C 2.515625 -2.859375 2.675781 -2.675781 2.78125 -2.4375 C 2.894531 -2.195312 2.953125 -1.914062 2.953125 -1.59375 C 2.953125 -1.320312 2.910156 -1.070312 2.828125 -0.84375 C 2.753906 -0.613281 2.632812 -0.429688 2.46875 -0.296875 C 2.351562 -0.203125 2.222656 -0.128906 2.078125 -0.078125 C 1.929688 -0.0234375 1.75 0 1.53125 0 L 0.34375 0 L 0.34375 -3.140625 L 1.5 -3.140625 C 1.675781 -3.140625 1.828125 -3.128906 1.953125 -3.109375 C 2.078125 -3.085938 2.191406 -3.046875 2.296875 -2.984375 Z M 2.515625 -1.59375 C 2.515625 -1.914062 2.460938 -2.160156 2.359375 -2.328125 C 2.265625 -2.503906 2.148438 -2.625 2.015625 -2.6875 C 1.878906 -2.75 1.707031 -2.78125 1.5 -2.78125 L 0.765625 -2.78125 L 0.765625 -0.375 L 1.453125 -0.375 C 1.660156 -0.375 1.832031 -0.394531 1.96875 -0.4375 C 2.113281 -0.488281 2.238281 -0.601562 2.34375 -0.78125 C 2.457031 -0.96875 2.515625 -1.238281 2.515625 -1.59375 Z M 2.515625 -1.59375 "/></g></g></g><g fill="#f9bf29" fill-opacity="1"><g transform="translate(62.174088, 6.431643)"><g><path d="M 1.203125 -3.109375 C 1.398438 -3.109375 1.570312 -3.070312 1.71875 -3 C 1.863281 -2.925781 1.972656 -2.820312 2.046875 -2.6875 C 2.117188 -2.5625 2.15625 -2.421875 2.15625 -2.265625 C 2.15625 -2.097656 2.113281 -1.941406 2.03125 -1.796875 C 1.957031 -1.648438 1.859375 -1.515625 1.734375 -1.390625 C 1.617188 -1.273438 1.46875 -1.144531 1.28125 -1 C 1.101562 -0.84375 0.96875 -0.71875 0.875 -0.625 C 0.78125 -0.539062 0.707031 -0.453125 0.65625 -0.359375 L 2.171875 -0.359375 L 2.171875 0 L 0.125 0 C 0.125 -0.175781 0.1875 -0.351562 0.3125 -0.53125 C 0.445312 -0.71875 0.625 -0.90625 0.84375 -1.09375 C 1.0625 -1.28125 1.234375 -1.429688 1.359375 -1.546875 C 1.492188 -1.671875 1.597656 -1.789062 1.671875 -1.90625 C 1.742188 -2.019531 1.78125 -2.140625 1.78125 -2.265625 C 1.78125 -2.421875 1.722656 -2.546875 1.609375 -2.640625 C 1.503906 -2.742188 1.363281 -2.796875 1.1875 -2.796875 C 1.019531 -2.796875 0.878906 -2.742188 0.765625 -2.640625 C 0.648438 -2.535156 0.585938 -2.378906 0.578125 -2.171875 L 0.1875 -2.21875 C 0.21875 -2.507812 0.320312 -2.726562 0.5 -2.875 C 0.675781 -3.03125 0.910156 -3.109375 1.203125 -3.109375 Z M 1.203125 -3.109375 "/></g></g></g><g fill="#f9bf29" fill-opacity="1"><g transform="translate(64.581363, 6.431643)"><g><path d="M 1.203125 -3.109375 C 1.535156 -3.109375 1.785156 -2.976562 1.953125 -2.71875 C 2.128906 -2.457031 2.21875 -2.0625 2.21875 -1.53125 C 2.21875 -1 2.128906 -0.601562 1.953125 -0.34375 C 1.785156 -0.0820312 1.535156 0.046875 1.203125 0.046875 C 0.523438 0.046875 0.1875 -0.476562 0.1875 -1.53125 C 0.1875 -2.039062 0.269531 -2.429688 0.4375 -2.703125 C 0.613281 -2.972656 0.867188 -3.109375 1.203125 -3.109375 Z M 0.578125 -1.53125 C 0.578125 -1.101562 0.625 -0.785156 0.71875 -0.578125 C 0.820312 -0.367188 0.984375 -0.265625 1.203125 -0.265625 C 1.421875 -0.265625 1.578125 -0.367188 1.671875 -0.578125 C 1.773438 -0.785156 1.828125 -1.101562 1.828125 -1.53125 C 1.828125 -1.96875 1.773438 -2.285156 1.671875 -2.484375 C 1.566406 -2.691406 1.410156 -2.796875 1.203125 -2.796875 C 0.984375 -2.796875 0.820312 -2.691406 0.71875 -2.484375 C 0.625 -2.273438 0.578125 -1.957031 0.578125 -1.53125 Z M 0.578125 -1.53125 "/></g></g></g><g fill="#f9bf29" fill-opacity="1"><g transform="translate(62.174088, 10.904556)"><g><path d="M 1.375 -3.109375 L 1.625 -3.109375 L 1.625 0 L 1.234375 0 L 1.234375 -2.421875 C 1.140625 -2.335938 1.019531 -2.25 0.875 -2.15625 C 0.738281 -2.070312 0.609375 -2.007812 0.484375 -1.96875 L 0.484375 -2.328125 C 0.679688 -2.421875 0.859375 -2.535156 1.015625 -2.671875 C 1.179688 -2.816406 1.300781 -2.960938 1.375 -3.109375 Z M 1.375 -3.109375 "/></g></g></g><g fill="#f9bf29" fill-opacity="1"><g transform="translate(64.581363, 10.904556)"><g><path d="M 1.203125 -3.109375 C 1.535156 -3.109375 1.785156 -2.976562 1.953125 -2.71875 C 2.128906 -2.457031 2.21875 -2.0625 2.21875 -1.53125 C 2.21875 -1 2.128906 -0.601562 1.953125 -0.34375 C 1.785156 -0.0820312 1.535156 0.046875 1.203125 0.046875 C 0.523438 0.046875 0.1875 -0.476562 0.1875 -1.53125 C 0.1875 -2.039062 0.269531 -2.429688 0.4375 -2.703125 C 0.613281 -2.972656 0.867188 -3.109375 1.203125 -3.109375 Z M 0.578125 -1.53125 C 0.578125 -1.101562 0.625 -0.785156 0.71875 -0.578125 C 0.820312 -0.367188 0.984375 -0.265625 1.203125 -0.265625 C 1.421875 -0.265625 1.578125 -0.367188 1.671875 -0.578125 C 1.773438 -0.785156 1.828125 -1.101562 1.828125 -1.53125 C 1.828125 -1.96875 1.773438 -2.285156 1.671875 -2.484375 C 1.566406 -2.691406 1.410156 -2.796875 1.203125 -2.796875 C 0.984375 -2.796875 0.820312 -2.691406 0.71875 -2.484375 C 0.625 -2.273438 0.578125 -1.957031 0.578125 -1.53125 Z M 0.578125 -1.53125 "/></g></g></g><g fill="#ffffff" fill-opacity="1"><g transform="translate(9.411816, 24.12983)"><g><path d="M 6.078125 -7.578125 L 6.078125 -6.3125 L 3.890625 -6.3125 L 3.890625 0 L 2.390625 0 L 2.390625 -6.3125 L 0.203125 -6.3125 L 0.203125 -7.578125 Z M 6.078125 -7.578125 "/></g></g></g><g fill="#ffffff" fill-opacity="1"><g transform="translate(15.687643, 24.12983)"><g><path d="M 5.875 -4.71875 L 5.875 -7.578125 L 7.359375 -7.578125 L 7.359375 0 L 5.875 0 L 5.875 -3.453125 L 2.484375 -3.453125 L 2.484375 0 L 0.984375 0 L 0.984375 -7.578125 L 2.484375 -7.578125 L 2.484375 -4.71875 Z M 5.875 -4.71875 "/></g></g></g><g fill="#ffffff" fill-opacity="1"><g transform="translate(24.039883, 24.12983)"><g><path d="M 2.484375 -3.328125 L 2.484375 -1.25 L 6.09375 -1.25 L 6.09375 0 L 0.984375 0 L 0.984375 -7.578125 L 6.015625 -7.578125 L 6.015625 -6.3125 L 2.484375 -6.3125 L 2.484375 -4.546875 L 5.5625 -4.546875 L 5.5625 -3.328125 Z M 2.484375 -3.328125 "/></g></g></g><g fill="#ffffff" fill-opacity="1"><g transform="translate(30.548729, 24.12983)"><g/></g></g><g fill="#ffffff" fill-opacity="1"><g transform="translate(33.049745, 24.12983)"><g><path d="M 3.359375 0.109375 C 2.828125 0.109375 2.359375 0.046875 1.953125 -0.078125 C 1.546875 -0.210938 1.203125 -0.382812 0.921875 -0.59375 C 0.648438 -0.800781 0.445312 -1.035156 0.3125 -1.296875 L 1.125 -2.296875 L 1.265625 -2.296875 C 1.484375 -1.953125 1.769531 -1.679688 2.125 -1.484375 C 2.476562 -1.285156 2.890625 -1.1875 3.359375 -1.1875 C 3.753906 -1.1875 4.050781 -1.269531 4.25 -1.4375 C 4.457031 -1.601562 4.5625 -1.835938 4.5625 -2.140625 C 4.5625 -2.316406 4.53125 -2.460938 4.46875 -2.578125 C 4.40625 -2.703125 4.296875 -2.804688 4.140625 -2.890625 C 3.992188 -2.984375 3.789062 -3.0625 3.53125 -3.125 L 2.546875 -3.34375 C 1.867188 -3.5 1.363281 -3.753906 1.03125 -4.109375 C 0.695312 -4.472656 0.53125 -4.945312 0.53125 -5.53125 C 0.53125 -5.957031 0.632812 -6.332031 0.84375 -6.65625 C 1.0625 -6.976562 1.375 -7.226562 1.78125 -7.40625 C 2.195312 -7.59375 2.691406 -7.6875 3.265625 -7.6875 C 3.847656 -7.6875 4.34375 -7.609375 4.75 -7.453125 C 5.164062 -7.296875 5.519531 -7.0625 5.8125 -6.75 L 5.078125 -5.734375 L 4.9375 -5.734375 C 4.726562 -5.953125 4.484375 -6.117188 4.203125 -6.234375 C 3.929688 -6.347656 3.617188 -6.40625 3.265625 -6.40625 C 2.847656 -6.40625 2.53125 -6.332031 2.3125 -6.1875 C 2.101562 -6.039062 2 -5.835938 2 -5.578125 C 2 -5.347656 2.070312 -5.160156 2.21875 -5.015625 C 2.375 -4.867188 2.632812 -4.757812 3 -4.6875 L 4 -4.46875 C 4.738281 -4.320312 5.269531 -4.0625 5.59375 -3.6875 C 5.925781 -3.3125 6.09375 -2.828125 6.09375 -2.234375 C 6.09375 -1.753906 5.988281 -1.335938 5.78125 -0.984375 C 5.582031 -0.640625 5.273438 -0.367188 4.859375 -0.171875 C 4.453125 0.015625 3.953125 0.109375 3.359375 0.109375 Z M 3.359375 0.109375 "/></g></g></g><g fill="#ffffff" fill-opacity="1"><g transform="translate(39.553407, 24.12983)"><g><path d="M 4.125 0.109375 C 3.4375 0.109375 2.828125 -0.03125 2.296875 -0.3125 C 1.765625 -0.59375 1.347656 -1.023438 1.046875 -1.609375 C 0.742188 -2.191406 0.59375 -2.914062 0.59375 -3.78125 C 0.59375 -4.65625 0.742188 -5.378906 1.046875 -5.953125 C 1.347656 -6.535156 1.765625 -6.96875 2.296875 -7.25 C 2.828125 -7.539062 3.4375 -7.6875 4.125 -7.6875 C 4.820312 -7.6875 5.429688 -7.546875 5.953125 -7.265625 C 6.484375 -6.984375 6.898438 -6.550781 7.203125 -5.96875 C 7.503906 -5.382812 7.65625 -4.65625 7.65625 -3.78125 C 7.65625 -2.914062 7.503906 -2.191406 7.203125 -1.609375 C 6.898438 -1.023438 6.484375 -0.59375 5.953125 -0.3125 C 5.429688 -0.03125 4.820312 0.109375 4.125 0.109375 Z M 4.125 -1.1875 C 4.769531 -1.1875 5.257812 -1.390625 5.59375 -1.796875 C 5.9375 -2.210938 6.109375 -2.875 6.109375 -3.78125 C 6.109375 -4.6875 5.9375 -5.347656 5.59375 -5.765625 C 5.257812 -6.179688 4.769531 -6.390625 4.125 -6.390625 C 3.476562 -6.390625 2.984375 -6.179688 2.640625 -5.765625 C 2.304688 -5.347656 2.140625 -4.6875 2.140625 -3.78125 C 2.140625 -2.875 2.304688 -2.210938 2.640625 -1.796875 C 2.984375 -1.390625 3.476562 -1.1875 4.125 -1.1875 Z M 4.125 -1.1875 "/></g></g></g><g fill="#ffffff" fill-opacity="1"><g transform="translate(47.802086, 24.12983)"><g><path d="M 5.78125 -7.578125 L 5.78125 -6.3125 L 2.484375 -6.3125 L 2.484375 -4.3125 L 5.484375 -4.3125 L 5.484375 -3.078125 L 2.484375 -3.078125 L 2.484375 0 L 0.984375 0 L 0.984375 -7.578125 Z M 5.78125 -7.578125 "/></g></g></g><g fill="#ffffff" fill-opacity="1"><g transform="translate(53.92257, 24.12983)"><g><path d="M 7.265625 0 L 5.6875 0 L 5.125 -1.75 L 2.21875 -1.75 L 1.65625 0 L 0.109375 0 L 2.734375 -7.578125 L 4.65625 -7.578125 Z M 3.59375 -6 L 2.625 -3 L 4.703125 -3 L 3.734375 -6 Z M 3.59375 -6 "/></g></g></g><g fill="#ffffff" fill-opacity="1"><g transform="translate(61.301332, 24.12983)"><g/></g></g><g fill="#ffffff" fill-opacity="1"><g transform="translate(63.802348, 24.12983)"><g><path d="M 5.875 -4.71875 L 5.875 -7.578125 L 7.359375 -7.578125 L 7.359375 0 L 5.875 0 L 5.875 -3.453125 L 2.484375 -3.453125 L 2.484375 0 L 0.984375 0 L 0.984375 -7.578125 L 2.484375 -7.578125 L 2.484375 -4.71875 Z M 5.875 -4.71875 "/></g></g></g><g fill="#ffffff" fill-opacity="1"><g transform="translate(72.154589, 24.12983)"><g><path d="M 4.015625 0.109375 C 2.972656 0.109375 2.195312 -0.132812 1.6875 -0.625 C 1.1875 -1.125 0.9375 -1.863281 0.9375 -2.84375 L 0.9375 -7.578125 L 2.40625 -7.578125 L 2.40625 -2.84375 C 2.40625 -2.289062 2.535156 -1.875 2.796875 -1.59375 C 3.066406 -1.320312 3.472656 -1.1875 4.015625 -1.1875 C 5.085938 -1.1875 5.625 -1.738281 5.625 -2.84375 L 5.625 -7.578125 L 7.09375 -7.578125 L 7.09375 -2.84375 C 7.09375 -1.863281 6.835938 -1.125 6.328125 -0.625 C 5.828125 -0.132812 5.054688 0.109375 4.015625 0.109375 Z M 4.015625 0.109375 "/></g></g></g><g fill="#ffffff" fill-opacity="1"><g transform="translate(80.180605, 24.12983)"><g><path d="M 0.984375 0 L 0.984375 -7.578125 L 4.21875 -7.578125 C 4.6875 -7.578125 5.082031 -7.503906 5.40625 -7.359375 C 5.726562 -7.210938 5.96875 -7 6.125 -6.71875 C 6.289062 -6.445312 6.375 -6.128906 6.375 -5.765625 C 6.375 -5.429688 6.289062 -5.132812 6.125 -4.875 C 5.96875 -4.625 5.738281 -4.421875 5.4375 -4.265625 L 5.4375 -4.15625 C 5.914062 -4.03125 6.285156 -3.800781 6.546875 -3.46875 C 6.804688 -3.144531 6.9375 -2.742188 6.9375 -2.265625 C 6.9375 -1.546875 6.71875 -0.988281 6.28125 -0.59375 C 5.84375 -0.195312 5.191406 0 4.328125 0 Z M 3.90625 -4.546875 C 4.601562 -4.546875 4.953125 -4.863281 4.953125 -5.5 C 4.953125 -5.820312 4.863281 -6.0625 4.6875 -6.21875 C 4.519531 -6.375 4.257812 -6.453125 3.90625 -6.453125 L 2.484375 -6.453125 L 2.484375 -4.546875 Z M 4.1875 -1.1875 C 5.007812 -1.1875 5.421875 -1.5625 5.421875 -2.3125 C 5.421875 -3.0625 5.007812 -3.4375 4.1875 -3.4375 L 2.484375 -3.4375 L 2.484375 -1.1875 Z M 4.1875 -1.1875 "/></g></g></g><g fill="#f9bf29" fill-opacity="1"><g transform="translate(32.242709, 34.130577)"><g><path d="M 2.140625 -2.59375 C 2.234375 -2.519531 2.300781 -2.425781 2.34375 -2.3125 C 2.394531 -2.207031 2.421875 -2.097656 2.421875 -1.984375 C 2.421875 -1.679688 2.304688 -1.453125 2.078125 -1.296875 C 1.929688 -1.179688 1.707031 -1.125 1.40625 -1.125 L 0.671875 -1.125 L 0.671875 0 L 0.296875 0 L 0.296875 -2.78125 L 1.40625 -2.78125 C 1.582031 -2.78125 1.722656 -2.765625 1.828125 -2.734375 C 1.941406 -2.710938 2.046875 -2.664062 2.140625 -2.59375 Z M 2.03125 -1.984375 C 2.03125 -2.035156 2.015625 -2.09375 1.984375 -2.15625 C 1.960938 -2.226562 1.929688 -2.285156 1.890625 -2.328125 C 1.835938 -2.378906 1.773438 -2.410156 1.703125 -2.421875 C 1.640625 -2.441406 1.550781 -2.453125 1.4375 -2.453125 L 0.671875 -2.453125 L 0.671875 -1.453125 L 1.40625 -1.453125 C 1.613281 -1.453125 1.769531 -1.492188 1.875 -1.578125 C 1.976562 -1.671875 2.03125 -1.804688 2.03125 -1.984375 Z M 2.03125 -1.984375 "/></g></g></g><g fill="#f9bf29" fill-opacity="1"><g transform="translate(34.827544, 34.130577)"><g><path d="M 2.25 -2.609375 C 2.351562 -2.535156 2.425781 -2.445312 2.46875 -2.34375 C 2.507812 -2.238281 2.53125 -2.128906 2.53125 -2.015625 C 2.53125 -1.816406 2.460938 -1.648438 2.328125 -1.515625 C 2.203125 -1.390625 2.007812 -1.304688 1.75 -1.265625 C 1.851562 -1.210938 1.941406 -1.144531 2.015625 -1.0625 C 2.097656 -0.988281 2.1875 -0.882812 2.28125 -0.75 L 2.75 0 L 2.296875 0 L 1.9375 -0.5625 C 1.8125 -0.75 1.710938 -0.882812 1.640625 -0.96875 C 1.566406 -1.0625 1.488281 -1.128906 1.40625 -1.171875 C 1.332031 -1.210938 1.238281 -1.234375 1.125 -1.234375 L 0.671875 -1.234375 L 0.671875 0 L 0.3125 0 L 0.3125 -2.78125 L 1.578125 -2.78125 C 1.742188 -2.78125 1.878906 -2.765625 1.984375 -2.734375 C 2.085938 -2.710938 2.175781 -2.671875 2.25 -2.609375 Z M 1.984375 -1.671875 C 2.046875 -1.710938 2.085938 -1.765625 2.109375 -1.828125 C 2.140625 -1.890625 2.15625 -1.953125 2.15625 -2.015625 C 2.15625 -2.179688 2.09375 -2.296875 1.96875 -2.359375 C 1.851562 -2.429688 1.71875 -2.46875 1.5625 -2.46875 L 0.671875 -2.46875 L 0.671875 -1.546875 L 1.5 -1.546875 C 1.632812 -1.546875 1.734375 -1.554688 1.796875 -1.578125 C 1.867188 -1.597656 1.929688 -1.628906 1.984375 -1.671875 Z M 1.984375 -1.671875 "/></g></g></g><g fill="#f9bf29" fill-opacity="1"><g transform="translate(37.62552, 34.130577)"><g><path d="M 2.3125 -2.453125 L 0.671875 -2.453125 L 0.671875 -1.59375 L 2.203125 -1.59375 L 2.203125 -1.265625 L 0.671875 -1.265625 L 0.671875 -0.328125 L 2.375 -0.328125 L 2.375 0 L 0.3125 0 L 0.3125 -2.78125 L 2.3125 -2.78125 Z M 2.3125 -2.453125 "/></g></g></g><g fill="#f9bf29" fill-opacity="1"><g transform="translate(40.210356, 34.130577)"><g><path d="M 1.53125 -0.734375 C 1.539062 -0.679688 1.578125 -0.570312 1.640625 -0.40625 C 1.660156 -0.488281 1.707031 -0.628906 1.78125 -0.828125 L 2.453125 -2.78125 L 2.9375 -2.78125 L 2.9375 0 L 2.59375 0 L 2.59375 -2.328125 L 1.78125 0 L 1.453125 0 L 0.640625 -2.359375 L 0.640625 0 L 0.296875 0 L 0.296875 -2.78125 L 0.84375 -2.78125 Z M 1.53125 -0.734375 "/></g></g></g><g fill="#f9bf29" fill-opacity="1"><g transform="translate(43.438494, 34.130577)"><g><path d="M 0.71875 0 L 0.359375 0 L 0.359375 -2.78125 L 0.71875 -2.78125 Z M 0.71875 0 "/></g></g></g><g fill="#f9bf29" fill-opacity="1"><g transform="translate(44.515831, 34.130577)"><g><path d="M 0.671875 -1.140625 C 0.671875 -0.898438 0.695312 -0.726562 0.75 -0.625 C 0.800781 -0.519531 0.878906 -0.4375 0.984375 -0.375 C 1.085938 -0.3125 1.21875 -0.28125 1.375 -0.28125 C 1.601562 -0.28125 1.769531 -0.320312 1.875 -0.40625 C 1.988281 -0.5 2.054688 -0.601562 2.078125 -0.71875 C 2.109375 -0.832031 2.125 -0.96875 2.125 -1.125 L 2.125 -2.78125 L 2.484375 -2.78125 L 2.484375 -1.140625 C 2.484375 -1.003906 2.472656 -0.867188 2.453125 -0.734375 C 2.441406 -0.597656 2.394531 -0.472656 2.3125 -0.359375 C 2.226562 -0.234375 2.113281 -0.132812 1.96875 -0.0625 C 1.820312 0.0078125 1.632812 0.046875 1.40625 0.046875 C 1.175781 0.046875 0.988281 0.015625 0.84375 -0.046875 C 0.707031 -0.117188 0.59375 -0.210938 0.5 -0.328125 C 0.414062 -0.429688 0.363281 -0.550781 0.34375 -0.6875 C 0.320312 -0.832031 0.3125 -0.984375 0.3125 -1.140625 L 0.3125 -2.78125 L 0.671875 -2.78125 Z M 0.671875 -1.140625 "/></g></g></g><g fill="#f9bf29" fill-opacity="1"><g transform="translate(47.313807, 34.130577)"><g><path d="M 1.53125 -0.734375 C 1.539062 -0.679688 1.578125 -0.570312 1.640625 -0.40625 C 1.660156 -0.488281 1.707031 -0.628906 1.78125 -0.828125 L 2.453125 -2.78125 L 2.9375 -2.78125 L 2.9375 0 L 2.59375 0 L 2.59375 -2.328125 L 1.78125 0 L 1.453125 0 L 0.640625 -2.359375 L 0.640625 0 L 0.296875 0 L 0.296875 -2.78125 L 0.84375 -2.78125 Z M 1.53125 -0.734375 "/></g></g></g><g fill="#f9bf29" fill-opacity="1"><g transform="translate(50.541945, 34.130577)"><g/></g></g><g fill="#f9bf29" fill-opacity="1"><g transform="translate(51.619282, 34.130577)"><g><path d="M 1.25 -2.828125 C 1.570312 -2.828125 1.820312 -2.75 2 -2.59375 C 2.1875 -2.445312 2.285156 -2.242188 2.296875 -1.984375 L 1.9375 -1.96875 C 1.925781 -2.144531 1.863281 -2.273438 1.75 -2.359375 C 1.644531 -2.441406 1.484375 -2.484375 1.265625 -2.484375 C 1.066406 -2.484375 0.910156 -2.445312 0.796875 -2.375 C 0.691406 -2.300781 0.640625 -2.203125 0.640625 -2.078125 C 0.640625 -1.992188 0.660156 -1.921875 0.703125 -1.859375 C 0.753906 -1.804688 0.828125 -1.769531 0.921875 -1.75 C 0.941406 -1.738281 1.015625 -1.710938 1.140625 -1.671875 C 1.273438 -1.628906 1.445312 -1.585938 1.65625 -1.546875 C 1.894531 -1.492188 2.070312 -1.394531 2.1875 -1.25 C 2.3125 -1.113281 2.375 -0.957031 2.375 -0.78125 C 2.375 -0.632812 2.332031 -0.492188 2.25 -0.359375 C 2.175781 -0.234375 2.0625 -0.132812 1.90625 -0.0625 C 1.75 0.0078125 1.566406 0.046875 1.359375 0.046875 C 1.109375 0.046875 0.894531 0.0078125 0.71875 -0.0625 C 0.550781 -0.144531 0.421875 -0.253906 0.328125 -0.390625 C 0.234375 -0.535156 0.179688 -0.703125 0.171875 -0.890625 L 0.515625 -0.921875 C 0.535156 -0.703125 0.625 -0.539062 0.78125 -0.4375 C 0.9375 -0.332031 1.125 -0.28125 1.34375 -0.28125 C 1.550781 -0.28125 1.71875 -0.320312 1.84375 -0.40625 C 1.96875 -0.5 2.03125 -0.617188 2.03125 -0.765625 C 2.03125 -0.972656 1.863281 -1.117188 1.53125 -1.203125 L 1.328125 -1.25 C 1.191406 -1.28125 1.035156 -1.320312 0.859375 -1.375 C 0.679688 -1.425781 0.539062 -1.515625 0.4375 -1.640625 C 0.332031 -1.765625 0.28125 -1.90625 0.28125 -2.0625 C 0.28125 -2.207031 0.316406 -2.335938 0.390625 -2.453125 C 0.472656 -2.566406 0.585938 -2.65625 0.734375 -2.71875 C 0.878906 -2.789062 1.050781 -2.828125 1.25 -2.828125 Z M 1.25 -2.828125 "/></g></g></g><g fill="#f9bf29" fill-opacity="1"><g transform="translate(54.204117, 34.130577)"><g><path d="M 1.453125 -2.828125 C 1.734375 -2.828125 1.976562 -2.765625 2.1875 -2.640625 C 2.394531 -2.523438 2.554688 -2.359375 2.671875 -2.140625 C 2.785156 -1.921875 2.84375 -1.671875 2.84375 -1.390625 C 2.84375 -1.097656 2.78125 -0.84375 2.65625 -0.625 C 2.539062 -0.414062 2.382812 -0.25 2.1875 -0.125 C 1.988281 -0.0078125 1.769531 0.046875 1.53125 0.046875 C 1.257812 0.046875 1.019531 -0.015625 0.8125 -0.140625 C 0.613281 -0.265625 0.457031 -0.429688 0.34375 -0.640625 C 0.238281 -0.859375 0.1875 -1.097656 0.1875 -1.359375 C 0.1875 -1.648438 0.238281 -1.90625 0.34375 -2.125 C 0.457031 -2.34375 0.609375 -2.515625 0.796875 -2.640625 C 0.992188 -2.765625 1.210938 -2.828125 1.453125 -2.828125 Z M 0.5625 -1.34375 C 0.5625 -1.125 0.597656 -0.929688 0.671875 -0.765625 C 0.753906 -0.609375 0.867188 -0.484375 1.015625 -0.390625 C 1.160156 -0.304688 1.320312 -0.265625 1.5 -0.265625 C 1.695312 -0.265625 1.863281 -0.304688 2 -0.390625 C 2.144531 -0.484375 2.253906 -0.613281 2.328125 -0.78125 C 2.410156 -0.945312 2.453125 -1.148438 2.453125 -1.390625 C 2.453125 -1.609375 2.410156 -1.800781 2.328125 -1.96875 C 2.253906 -2.144531 2.144531 -2.273438 2 -2.359375 C 1.863281 -2.453125 1.703125 -2.5 1.515625 -2.5 C 1.210938 -2.5 0.976562 -2.394531 0.8125 -2.1875 C 0.644531 -1.988281 0.5625 -1.707031 0.5625 -1.34375 Z M 0.5625 -1.34375 "/></g></g></g><g fill="#f9bf29" fill-opacity="1"><g transform="translate(57.219111, 34.130577)"><g><path d="M 2.1875 -2.453125 L 0.671875 -2.453125 L 0.671875 -1.59375 L 1.984375 -1.59375 L 1.984375 -1.265625 L 0.671875 -1.265625 L 0.671875 0 L 0.3125 0 L 0.3125 -2.78125 L 2.1875 -2.78125 Z M 2.1875 -2.453125 "/></g></g></g><g fill="#f9bf29" fill-opacity="1"><g transform="translate(59.586929, 34.130577)"><g><path d="M 2.59375 0 L 2.171875 0 L 1.84375 -0.84375 L 0.6875 -0.84375 L 0.390625 0 L 0 0 L 1.0625 -2.78125 L 1.453125 -2.78125 Z M 1.09375 -1.953125 L 0.796875 -1.140625 L 1.734375 -1.140625 L 1.390625 -2.046875 C 1.347656 -2.160156 1.300781 -2.304688 1.25 -2.484375 C 1.25 -2.472656 1.234375 -2.40625 1.203125 -2.28125 C 1.171875 -2.164062 1.132812 -2.054688 1.09375 -1.953125 Z M 1.09375 -1.953125 "/></g></g></g><g fill="#f9bf29" fill-opacity="1"><g transform="translate(62.171764, 34.130577)"><g><path d="M 1.25 -2.828125 C 1.570312 -2.828125 1.820312 -2.75 2 -2.59375 C 2.1875 -2.445312 2.285156 -2.242188 2.296875 -1.984375 L 1.9375 -1.96875 C 1.925781 -2.144531 1.863281 -2.273438 1.75 -2.359375 C 1.644531 -2.441406 1.484375 -2.484375 1.265625 -2.484375 C 1.066406 -2.484375 0.910156 -2.445312 0.796875 -2.375 C 0.691406 -2.300781 0.640625 -2.203125 0.640625 -2.078125 C 0.640625 -1.992188 0.660156 -1.921875 0.703125 -1.859375 C 0.753906 -1.804688 0.828125 -1.769531 0.921875 -1.75 C 0.941406 -1.738281 1.015625 -1.710938 1.140625 -1.671875 C 1.273438 -1.628906 1.445312 -1.585938 1.65625 -1.546875 C 1.894531 -1.492188 2.070312 -1.394531 2.1875 -1.25 C 2.3125 -1.113281 2.375 -0.957031 2.375 -0.78125 C 2.375 -0.632812 2.332031 -0.492188 2.25 -0.359375 C 2.175781 -0.234375 2.0625 -0.132812 1.90625 -0.0625 C 1.75 0.0078125 1.566406 0.046875 1.359375 0.046875 C 1.109375 0.046875 0.894531 0.0078125 0.71875 -0.0625 C 0.550781 -0.144531 0.421875 -0.253906 0.328125 -0.390625 C 0.234375 -0.535156 0.179688 -0.703125 0.171875 -0.890625 L 0.515625 -0.921875 C 0.535156 -0.703125 0.625 -0.539062 0.78125 -0.4375 C 0.9375 -0.332031 1.125 -0.28125 1.34375 -0.28125 C 1.550781 -0.28125 1.71875 -0.320312 1.84375 -0.40625 C 1.96875 -0.5 2.03125 -0.617188 2.03125 -0.765625 C 2.03125 -0.972656 1.863281 -1.117188 1.53125 -1.203125 L 1.328125 -1.25 C 1.191406 -1.28125 1.035156 -1.320312 0.859375 -1.375 C 0.679688 -1.425781 0.539062 -1.515625 0.4375 -1.640625 C 0.332031 -1.765625 0.28125 -1.90625 0.28125 -2.0625 C 0.28125 -2.207031 0.316406 -2.335938 0.390625 -2.453125 C 0.472656 -2.566406 0.585938 -2.65625 0.734375 -2.71875 C 0.878906 -2.789062 1.050781 -2.828125 1.25 -2.828125 Z M 1.25 -2.828125 "/></g></g></g></svg>